<mxfile host="65bd71144e">
    <diagram id="uquNmanTxFLIQfqpYKos" name="PÃ¡gina-1">
        <mxGraphModel dx="1242" dy="615" grid="1" gridSize="10" guides="1" tooltips="1" connect="1" arrows="1" fold="1" page="1" pageScale="1" pageWidth="827" pageHeight="1169" math="0" shadow="0">
            <root>
                <mxCell id="0"/>
                <mxCell id="1" parent="0"/>
                <mxCell id="_jJsW4iUKodWQhBjhRql-1" value="DataCenter" style="shape=umlActor;verticalLabelPosition=bottom;verticalAlign=top;html=1;" parent="1" vertex="1">
                    <mxGeometry x="140" y="160" width="30" height="60" as="geometry"/>
                </mxCell>
                <mxCell id="_jJsW4iUKodWQhBjhRql-4" value="Get Temperature" style="ellipse;whiteSpace=wrap;html=1;" parent="1" vertex="1">
                    <mxGeometry x="308" y="110" width="126" height="50" as="geometry"/>
                </mxCell>
                <mxCell id="_jJsW4iUKodWQhBjhRql-6" value="Get Humidity" style="ellipse;whiteSpace=wrap;html=1;" parent="1" vertex="1">
                    <mxGeometry x="318" y="220" width="106" height="50" as="geometry"/>
                </mxCell>
                <mxCell id="3" value="Use" style="endArrow=open;endSize=12;dashed=1;html=1;" parent="1" source="_jJsW4iUKodWQhBjhRql-1" target="_jJsW4iUKodWQhBjhRql-4" edge="1">
                    <mxGeometry width="160" relative="1" as="geometry">
                        <mxPoint x="180" y="180" as="sourcePoint"/>
                        <mxPoint x="490" y="320" as="targetPoint"/>
                    </mxGeometry>
                </mxCell>
                <mxCell id="4" value="Use" style="endArrow=open;endSize=12;dashed=1;html=1;" parent="1" source="_jJsW4iUKodWQhBjhRql-1" target="_jJsW4iUKodWQhBjhRql-6" edge="1">
                    <mxGeometry width="160" relative="1" as="geometry">
                        <mxPoint x="330" y="320" as="sourcePoint"/>
                        <mxPoint x="490" y="320" as="targetPoint"/>
                    </mxGeometry>
                </mxCell>
                <mxCell id="5" value="Register" style="ellipse;whiteSpace=wrap;html=1;" parent="1" vertex="1">
                    <mxGeometry x="520" y="170" width="100" height="40" as="geometry"/>
                </mxCell>
                <mxCell id="7" value="" style="endArrow=block;endSize=16;endFill=0;html=1;" parent="1" source="_jJsW4iUKodWQhBjhRql-4" target="5" edge="1">
                    <mxGeometry width="160" relative="1" as="geometry">
                        <mxPoint x="330" y="320" as="sourcePoint"/>
                        <mxPoint x="490" y="320" as="targetPoint"/>
                    </mxGeometry>
                </mxCell>
                <mxCell id="9" value="" style="endArrow=block;endSize=16;endFill=0;html=1;" parent="1" source="_jJsW4iUKodWQhBjhRql-6" target="5" edge="1">
                    <mxGeometry width="160" relative="1" as="geometry">
                        <mxPoint x="330" y="320" as="sourcePoint"/>
                        <mxPoint x="490" y="320" as="targetPoint"/>
                    </mxGeometry>
                </mxCell>
                <mxCell id="10" value="Set Temperature" style="ellipse;whiteSpace=wrap;html=1;" vertex="1" parent="1">
                    <mxGeometry x="680" y="110" width="110" height="50" as="geometry"/>
                </mxCell>
                <mxCell id="11" value="Set Humidity" style="ellipse;whiteSpace=wrap;html=1;" vertex="1" parent="1">
                    <mxGeometry x="680" y="220" width="110" height="50" as="geometry"/>
                </mxCell>
                <mxCell id="14" value="" style="endArrow=block;endSize=16;endFill=0;html=1;" edge="1" parent="1" source="5" target="10">
                    <mxGeometry width="160" relative="1" as="geometry">
                        <mxPoint x="430" y="320" as="sourcePoint"/>
                        <mxPoint x="590" y="320" as="targetPoint"/>
                    </mxGeometry>
                </mxCell>
                <mxCell id="15" value="" style="endArrow=block;endSize=16;endFill=0;html=1;" edge="1" parent="1" source="5" target="11">
                    <mxGeometry width="160" relative="1" as="geometry">
                        <mxPoint x="430" y="320" as="sourcePoint"/>
                        <mxPoint x="590" y="320" as="targetPoint"/>
                    </mxGeometry>
                </mxCell>
            </root>
        </mxGraphModel>
    </diagram>
</mxfile>